#Comment line ignore any data following # character 
#Hierarchical Translation and Rotation (.htr) file 
[Header]	
#Header keywords are followed by a single value 
FileType HTR		#Single word string
DataType HTRS		#Translation followed by rotation and scale data
FileVersion 1		#integer
NumSegments 84		#integer
NumFrames 2		#integer
DataFrameRate 30		#integer, data frame rate in this file
EulerRotationOrder ZYX
CalibrationUnits mm
RotationUnits Degrees
GlobalAxisofGravity Y
BoneLengthAxis Y
ScaleFactor 1.00
[SegmentNames&Hierarchy]
#CHILD	PARENT
MASTER GLOBAL
root MASTER
chest root
L_mid_tent01 root
R_mid_tent01 root
spine01 root
Bip01_Neck chest
L_humerus chest
R_humerus chest
weapon_bone chest
Bip01_Head Bip01_Neck
eye_left_bone Bip01_Head
eye_right_bone Bip01_Head
L_forearm L_humerus
L_front_hand L_forearm
L_weapon_bone L_forearm
L_front_hand01_01 L_front_hand
L_front_hand02_01 L_front_hand
L_front_hand03_01 L_front_hand
L_front_hand01_02 L_front_hand01_01
L_front_hand02_02 L_front_hand02_01
L_front_hand03_02 L_front_hand03_01
R_forearm R_humerus
R_front_hand R_forearm
R_weapon_bone R_forearm
R_front_hand01_01 R_front_hand
R_front_hand02_01 R_front_hand
R_front_hand03_01 R_front_hand
R_front_hand01_02 R_front_hand01_01
R_front_hand02_02 R_front_hand02_01
R_front_hand03_02 R_front_hand03_01
null_rope01_connect L_mid_tent01
Rope1_Seg01 null_rope01_connect
Rope1_Seg02 Rope1_Seg01
Rope1_Seg03 Rope1_Seg02
Rope1_Seg04 Rope1_Seg03
Rope1_Seg05 Rope1_Seg04
Rope1_Seg06 Rope1_Seg05
Rope1_Seg07 Rope1_Seg06
Rope1_Seg09 Rope1_Seg07
L_mid_hand01 Rope1_Seg09
L_mid_hand02 Rope1_Seg09
L_mid_hand03 Rope1_Seg09
null_rope02_connect R_mid_tent01
Rope2_Seg01 null_rope02_connect
Rope2_Seg02 Rope2_Seg01
Rope2_Seg03 Rope2_Seg02
Rope2_Seg04 Rope2_Seg03
Rope2_Seg05 Rope2_Seg04
Rope2_Seg06 Rope2_Seg05
Rope2_Seg07 Rope2_Seg06
Rope2_Seg09 Rope2_Seg07
R_mid_hand01 Rope2_Seg09
R_mid_hand02 Rope2_Seg09
R_mid_hand03 Rope2_Seg09
spine02 spine01
spine03 spine02
pelvis spine03
null_rope03_connect pelvis
null_rope04_connect pelvis
Rope3_Seg01 null_rope03_connect
Rope3_Seg02 Rope3_Seg01
Rope3_Seg03 Rope3_Seg02
Rope3_Seg04 Rope3_Seg03
Rope3_Seg05 Rope3_Seg04
Rope3_Seg06 Rope3_Seg05
Rope3_Seg07 Rope3_Seg06
Rope3_Seg08 Rope3_Seg07
Rope3_Seg09 Rope3_Seg08
R_rear_hand01 Rope3_Seg09
R_rear_hand02 Rope3_Seg09
R_rear_hand03 Rope3_Seg09
Rope4_Seg01 null_rope04_connect
Rope4_Seg02 Rope4_Seg01
Rope4_Seg03 Rope4_Seg02
Rope4_Seg04 Rope4_Seg03
Rope4_Seg05 Rope4_Seg04
Rope4_Seg06 Rope4_Seg05
Rope4_Seg07 Rope4_Seg06
Rope4_Seg08 Rope4_Seg07
Rope4_Seg09 Rope4_Seg08
L_rear_hand01 Rope4_Seg09
L_rear_hand02 Rope4_Seg09
L_rear_hand03 Rope4_Seg09
[BasePosition]
#SegmentName Tx, Ty, Tz, Rx, Ry, Rz, BoneLength
MASTER 0.000000 0.000000 0.000000 -90.000000 0.000000 0.000000 10.000000 
root 0.000000 0.000000 0.000000 0.000000 0.000000 0.000000 10.000000 
chest 0.000000 0.000000 0.000000 0.000000 0.000000 0.000000 10.000000 
L_mid_tent01 0.000000 0.000000 0.000000 0.000000 0.000000 0.000000 10.000000 
R_mid_tent01 0.000000 0.000000 0.000000 0.000000 0.000000 0.000000 10.000000 
spine01 0.000000 0.000000 0.000000 0.000000 0.000000 0.000000 10.000000 
Bip01_Neck 0.000000 0.000000 0.000000 0.000000 0.000000 0.000000 10.000000 
L_humerus 0.000000 0.000000 0.000000 0.000000 0.000000 0.000000 10.000000 
R_humerus 0.000000 0.000000 0.000000 0.000000 0.000000 0.000000 10.000000 
weapon_bone 0.000000 0.000000 0.000000 0.000000 0.000000 0.000000 10.000000 
Bip01_Head 0.000000 0.000000 0.000000 0.000000 0.000000 0.000000 10.000000 
eye_left_bone 0.000000 0.000000 0.000000 0.000000 0.000000 0.000000 10.000000 
eye_right_bone 0.000000 0.000000 0.000000 0.000000 0.000000 0.000000 10.000000 
L_forearm 0.000000 0.000000 0.000000 0.000000 0.000000 0.000000 10.000000 
L_front_hand 0.000000 0.000000 0.000000 0.000000 0.000000 0.000000 10.000000 
L_weapon_bone 0.000000 0.000000 0.000000 0.000000 0.000000 0.000000 10.000000 
L_front_hand01_01 0.000000 0.000000 0.000000 0.000000 0.000000 0.000000 10.000000 
L_front_hand02_01 0.000000 0.000000 0.000000 0.000000 0.000000 0.000000 10.000000 
L_front_hand03_01 0.000000 0.000000 0.000000 0.000000 0.000000 0.000000 10.000000 
L_front_hand01_02 0.000000 0.000000 0.000000 0.000000 0.000000 0.000000 10.000000 
L_front_hand02_02 0.000000 0.000000 0.000000 0.000000 0.000000 0.000000 10.000000 
L_front_hand03_02 0.000000 0.000000 0.000000 0.000000 0.000000 0.000000 10.000000 
R_forearm 0.000000 0.000000 0.000000 0.000000 0.000000 0.000000 10.000000 
R_front_hand 0.000000 0.000000 0.000000 0.000000 0.000000 0.000000 10.000000 
R_weapon_bone 0.000000 0.000000 0.000000 0.000000 0.000000 0.000000 10.000000 
R_front_hand01_01 0.000000 0.000000 0.000000 0.000000 0.000000 0.000000 10.000000 
R_front_hand02_01 0.000000 0.000000 0.000000 0.000000 0.000000 0.000000 10.000000 
R_front_hand03_01 0.000000 0.000000 0.000000 0.000000 0.000000 0.000000 10.000000 
R_front_hand01_02 0.000000 0.000000 0.000000 0.000000 0.000000 0.000000 10.000000 
R_front_hand02_02 0.000000 0.000000 0.000000 0.000000 0.000000 0.000000 10.000000 
R_front_hand03_02 0.000000 0.000000 0.000000 0.000000 0.000000 0.000000 10.000000 
null_rope01_connect 0.000000 0.000000 0.000000 0.000000 0.000000 0.000000 10.000000 
Rope1_Seg01 0.000000 0.000000 0.000000 0.000000 0.000000 0.000000 10.000000 
Rope1_Seg02 0.000000 0.000000 0.000000 0.000000 0.000000 0.000000 10.000000 
Rope1_Seg03 0.000000 0.000000 0.000000 0.000000 0.000000 0.000000 10.000000 
Rope1_Seg04 0.000000 0.000000 0.000000 0.000000 0.000000 0.000000 10.000000 
Rope1_Seg05 0.000000 0.000000 0.000000 0.000000 0.000000 0.000000 10.000000 
Rope1_Seg06 0.000000 0.000000 0.000000 0.000000 0.000000 0.000000 10.000000 
Rope1_Seg07 0.000000 0.000000 0.000000 0.000000 0.000000 0.000000 10.000000 
Rope1_Seg09 0.000000 0.000000 0.000000 0.000000 0.000000 0.000000 10.000000 
L_mid_hand01 0.000000 0.000000 0.000000 0.000000 0.000000 0.000000 10.000000 
L_mid_hand02 0.000000 0.000000 0.000000 0.000000 0.000000 0.000000 10.000000 
L_mid_hand03 0.000000 0.000000 0.000000 0.000000 0.000000 0.000000 10.000000 
null_rope02_connect 0.000000 0.000000 0.000000 0.000000 0.000000 0.000000 10.000000 
Rope2_Seg01 0.000000 0.000000 0.000000 0.000000 0.000000 0.000000 10.000000 
Rope2_Seg02 0.000000 0.000000 0.000000 0.000000 0.000000 0.000000 10.000000 
Rope2_Seg03 0.000000 0.000000 0.000000 0.000000 0.000000 0.000000 10.000000 
Rope2_Seg04 0.000000 0.000000 0.000000 0.000000 0.000000 0.000000 10.000000 
Rope2_Seg05 0.000000 0.000000 0.000000 0.000000 0.000000 0.000000 10.000000 
Rope2_Seg06 0.000000 0.000000 0.000000 0.000000 0.000000 0.000000 10.000000 
Rope2_Seg07 0.000000 0.000000 0.000000 0.000000 0.000000 0.000000 10.000000 
Rope2_Seg09 0.000000 0.000000 0.000000 0.000000 0.000000 0.000000 10.000000 
R_mid_hand01 0.000000 0.000000 0.000000 0.000000 0.000000 0.000000 10.000000 
R_mid_hand02 0.000000 0.000000 0.000000 0.000000 0.000000 0.000000 10.000000 
R_mid_hand03 0.000000 0.000000 0.000000 0.000000 0.000000 0.000000 10.000000 
spine02 0.000000 0.000000 0.000000 0.000000 0.000000 0.000000 10.000000 
spine03 0.000000 0.000000 0.000000 0.000000 0.000000 0.000000 10.000000 
pelvis 0.000000 0.000000 0.000000 0.000000 0.000000 0.000000 10.000000 
null_rope03_connect 0.000000 0.000000 0.000000 0.000000 0.000000 0.000000 10.000000 
null_rope04_connect 0.000000 0.000000 0.000000 0.000000 0.000000 0.000000 10.000000 
Rope3_Seg01 0.000000 0.000000 0.000000 0.000000 0.000000 0.000000 10.000000 
Rope3_Seg02 0.000000 0.000000 0.000000 0.000000 0.000000 0.000000 10.000000 
Rope3_Seg03 0.000000 0.000000 0.000000 0.000000 0.000000 0.000000 10.000000 
Rope3_Seg04 0.000000 0.000000 0.000000 0.000000 0.000000 0.000000 10.000000 
Rope3_Seg05 0.000000 0.000000 0.000000 0.000000 0.000000 0.000000 10.000000 
Rope3_Seg06 0.000000 0.000000 0.000000 0.000000 0.000000 0.000000 10.000000 
Rope3_Seg07 0.000000 0.000000 0.000000 0.000000 0.000000 0.000000 10.000000 
Rope3_Seg08 0.000000 0.000000 0.000000 0.000000 0.000000 0.000000 10.000000 
Rope3_Seg09 0.000000 0.000000 0.000000 0.000000 0.000000 0.000000 10.000000 
R_rear_hand01 0.000000 0.000000 0.000000 0.000000 0.000000 0.000000 10.000000 
R_rear_hand02 0.000000 0.000000 0.000000 0.000000 0.000000 0.000000 10.000000 
R_rear_hand03 0.000000 0.000000 0.000000 0.000000 0.000000 0.000000 10.000000 
Rope4_Seg01 0.000000 0.000000 0.000000 0.000000 0.000000 0.000000 10.000000 
Rope4_Seg02 0.000000 0.000000 0.000000 0.000000 0.000000 0.000000 10.000000 
Rope4_Seg03 0.000000 0.000000 0.000000 0.000000 0.000000 0.000000 10.000000 
Rope4_Seg04 0.000000 0.000000 0.000000 0.000000 0.000000 0.000000 10.000000 
Rope4_Seg05 0.000000 0.000000 0.000000 0.000000 0.000000 0.000000 10.000000 
Rope4_Seg06 0.000000 0.000000 0.000000 0.000000 0.000000 0.000000 10.000000 
Rope4_Seg07 0.000000 0.000000 0.000000 0.000000 0.000000 0.000000 10.000000 
Rope4_Seg08 0.000000 0.000000 0.000000 0.000000 0.000000 0.000000 10.000000 
Rope4_Seg09 0.000000 0.000000 0.000000 0.000000 0.000000 0.000000 10.000000 
L_rear_hand01 0.000000 0.000000 0.000000 0.000000 0.000000 0.000000 10.000000 
L_rear_hand02 0.000000 0.000000 0.000000 0.000000 0.000000 0.000000 10.000000 
L_rear_hand03 0.000000 0.000000 0.000000 0.000000 0.000000 0.000000 10.000000 
#Beginning of Data. Separated by tabs
#Fr	Tx	Ty	Tz	Rx	Ry	Rz	SF
[MASTER]
30 0.000000 0.000000 0.000000 0.001660 0.001660 0.001660 0.000000
31 0.000000 0.000000 0.000000 0.001660 0.001660 0.001660 0.000000
[root]
30 -17.714773 -61.640514 1504.030518 -91.629700 -27.676081 -90.148109 1505.397339
31 -16.502293 -62.822132 1500.000000 -91.629723 -27.676090 -90.148125 1501.405640
[chest]
30 -84.512650 -34.090519 0.000000 -1.888051 0.943089 -178.206696 91.129311
31 -84.512650 -34.090519 0.000000 -1.888051 0.943090 -178.206696 91.129311
[L_mid_tent01]
30 27.299637 22.177666 -249.918320 3.862628 36.229202 81.347610 252.381241
31 27.299643 22.177670 -249.918320 3.862628 36.229202 81.347610 252.381241
[R_mid_tent01]
30 23.228794 24.509907 226.238495 160.432037 -47.061241 87.899765 228.744751
31 23.228794 24.509907 226.238495 160.432037 -47.061249 87.899780 228.744751
[spine01]
30 -0.361383 -0.195265 0.000000 0.001845 0.001451 13.654368 0.410763
31 -0.361383 -0.195265 0.000000 0.001845 0.001451 13.654369 0.410763
[Bip01_Neck]
30 165.484543 71.581718 0.000119 176.643677 -1.657967 43.431911 180.302734
31 165.484543 71.581718 0.000119 176.643677 -1.657967 43.431919 180.302734
[L_humerus]
30 -13.983130 -135.272980 -120.471481 156.317398 70.210068 -112.010254 181.680161
31 -13.983130 -135.272980 -120.471481 156.317398 70.210068 -112.010254 181.680161
[R_humerus]
30 -13.983309 -135.273102 125.287651 -172.382263 -66.903831 -92.553993 184.909012
31 -13.983309 -135.273102 125.287651 -172.382263 -66.903854 -92.554031 184.909012
[weapon_bone]
30 235.964890 -300.705902 0.000000 0.000000 -89.951546 -128.212341 382.234833
31 235.964890 -300.705902 0.000000 0.000000 -89.951546 -128.212341 382.234833
[Bip01_Head]
30 213.327026 186.042023 7.559223 5.200446 6.151311 -43.834991 283.155792
31 213.327026 186.042023 7.559218 5.200446 6.151312 -43.834995 283.155792
[eye_left_bone]
30 -24.626970 125.451866 -64.772606 0.000000 -90.000000 -99.840431 143.318359
31 -24.626970 125.451866 -64.772606 0.000000 -90.000000 -99.840431 143.318359
[eye_right_bone]
30 -24.626970 125.451866 64.327362 0.000000 -89.965736 80.156380 143.117676
31 -24.626970 125.451866 64.327362 0.000000 -90.000000 80.156387 143.117676
[L_forearm]
30 322.776093 0.000000 -0.000119 0.000119 -0.002344 -95.807457 322.776093
31 322.776093 0.000000 -0.000119 0.000119 -0.002344 -95.807472 322.776093
[L_front_hand]
30 241.149185 -0.042021 -3.300071 -178.667953 -1.835447 -27.422350 241.171753
31 241.149185 -0.042021 -3.300071 -178.667953 -1.835448 -27.422352 241.171753
[L_weapon_bone]
30 156.183838 0.000000 0.000000 0.000014 0.000007 0.000001 156.183838
31 156.183838 0.000000 0.000000 0.000014 0.000007 0.000001 156.183838
[L_front_hand01_01]
30 86.095154 20.947098 -0.655860 -0.360010 -0.482183 74.749420 88.609184
31 86.095154 20.947098 -0.655860 -0.365371 -0.478091 75.092117 88.609184
[L_front_hand02_01]
30 86.935165 -11.437475 24.513514 153.427811 -59.611076 -60.242897 91.046425
31 86.935165 -11.437475 24.513514 153.946487 -59.758575 -60.843483 91.046425
[L_front_hand03_01]
30 86.637497 -14.123976 -20.424902 -153.017059 57.836376 -61.645977 90.126129
31 86.637497 -14.123976 -20.424902 -153.504349 57.989811 -62.217361 90.126129
[L_front_hand01_02]
30 71.020905 -0.000179 0.000030 0.000327 -0.002324 -106.003113 71.020905
31 71.020905 -0.000179 0.000030 0.000328 -0.002324 -106.058144 71.020905
[L_front_hand02_02]
30 71.020927 -0.000119 0.000060 0.000327 -0.002324 -106.003113 71.020927
31 71.020927 -0.000119 0.000060 0.000328 -0.002324 -106.058144 71.020927
[L_front_hand03_02]
30 71.020905 -0.000060 0.000060 0.000327 -0.002324 -106.003113 71.020905
31 71.020905 -0.000060 0.000060 0.000328 -0.002324 -106.058144 71.020905
[R_forearm]
30 322.776428 -0.000060 0.000030 0.209504 0.012586 -94.339050 322.776428
31 322.776428 -0.000060 0.000030 0.209504 0.012586 -94.339058 322.776428
[R_front_hand]
30 238.847015 -0.006795 2.210259 -2.635298 -10.645461 -26.312506 238.857239
31 238.847015 -0.006795 2.210259 -2.635299 -10.645463 -26.312508 238.857239
[R_weapon_bone]
30 155.664093 0.002503 -0.000030 0.003487 0.001180 -90.988930 155.664078
31 155.664093 0.002503 -0.000030 0.003487 0.001180 -90.988930 155.664078
[R_front_hand01_01]
30 87.624611 14.231146 22.918642 -154.633484 -59.950619 61.746037 91.683487
31 87.624611 14.231146 22.918642 -154.633499 -59.950634 61.746063 91.683487
[R_front_hand02_01]
30 89.356956 14.367283 -19.491137 154.602661 58.302849 63.744389 92.579636
31 89.356956 14.367283 -19.491137 154.602676 58.302864 63.744400 92.579636
[R_front_hand03_01]
30 87.286232 -22.307278 -0.143439 0.162155 -0.423168 -75.767921 90.091743
31 87.286232 -22.307278 -0.143439 0.162155 -0.423168 -75.767921 90.091743
[R_front_hand01_02]
30 71.020905 0.000060 0.000119 0.002323 -0.000334 106.381714 71.020905
31 71.020905 0.000060 0.000119 0.002323 -0.000334 106.381729 71.020905
[R_front_hand02_02]
30 71.020844 -0.000030 -0.000119 0.002323 -0.000334 106.381714 71.020836
31 71.020844 -0.000030 -0.000119 0.002323 -0.000334 106.381729 71.020836
[R_front_hand03_02]
30 71.020905 0.000000 0.000030 0.002323 -0.000334 106.381714 71.020905
31 71.020905 0.000000 0.000030 0.002323 -0.000334 106.381729 71.020905
[null_rope01_connect]
30 328.732483 0.000000 -0.000238 -137.564529 -51.925488 175.258713 328.732483
31 328.732483 0.000000 -0.000238 -137.564545 -51.925488 175.258728 328.732483
[Rope1_Seg01]
30 -0.000038 -0.000114 0.000114 109.755966 45.622028 133.469620 0.000166
31 -0.000038 -0.000114 0.000114 111.625114 44.493820 136.468842 0.000166
[Rope1_Seg02]
30 139.999863 -0.000179 0.000000 -0.121423 -7.957905 3.907562 139.999863
31 139.999863 -0.000179 0.000000 -0.041888 -9.002488 3.830596 139.999863
[Rope1_Seg03]
30 139.999924 0.000060 -0.000060 -1.252583 -11.947869 4.753909 139.999924
31 139.999924 0.000060 -0.000060 -1.578781 -14.176358 4.844590 139.999924
[Rope1_Seg04]
30 139.999924 -0.000060 -0.000119 -5.159996 -18.620247 7.031671 139.999924
31 139.999924 -0.000060 -0.000119 -6.788543 -21.531792 6.575650 139.999924
[Rope1_Seg05]
30 139.999832 0.000119 -0.000060 -0.532197 -12.759420 16.756821 139.999832
31 139.999832 0.000119 -0.000060 1.074244 -10.583307 15.823144 139.999832
[Rope1_Seg06]
30 139.999954 0.000119 -0.000060 1.707981 -4.639720 7.085335 139.999954
31 139.999954 0.000119 -0.000060 3.381531 -3.498834 7.368464 139.999954
[Rope1_Seg07]
30 139.999985 0.000060 0.000000 0.547388 -2.617451 3.408066 139.999985
31 139.999985 0.000060 0.000000 1.353492 -2.198198 3.572710 139.999985
[Rope1_Seg09]
30 121.602913 0.000119 -0.000089 -89.793175 -1.359789 0.847147 121.602913
31 121.602913 0.000119 -0.000089 -89.793175 -1.359789 0.847147 121.602913
[L_mid_hand01]
30 103.859421 1.038730 8.195221 130.544373 -67.584534 -38.866943 104.187431
31 103.859421 1.038730 8.195221 130.544373 -67.584534 -38.866943 104.187431
[L_mid_hand02]
30 105.572853 -4.139662 -10.864139 -168.923172 43.409309 -73.498886 106.211075
31 105.572853 -4.139662 -10.864139 -168.923172 43.409321 -73.498909 106.211075
[L_mid_hand03]
30 104.641464 17.579376 -3.913581 -6.012627 17.808178 74.893677 106.179977
31 104.641464 17.579376 -3.913581 -6.012628 17.808178 74.893677 106.179977
[null_rope02_connect]
30 328.732849 0.000179 -0.000119 -123.736763 41.490059 18.218470 328.732849
31 328.732849 0.000179 -0.000119 -123.736763 41.490059 18.218470 328.732849
[Rope2_Seg01]
30 -0.000039 0.000134 0.000153 -56.504147 44.232174 40.640568 0.000207
31 -0.000038 0.000134 0.000153 -57.483864 43.145088 38.598835 0.000206
[Rope2_Seg02]
30 139.999741 -0.000060 -0.000119 -0.267987 -8.950293 3.887859 139.999756
31 139.999741 -0.000060 -0.000119 -0.359142 -8.991781 4.207975 139.999756
[Rope2_Seg03]
30 140.000107 0.000030 0.000000 -0.526189 -11.504574 5.285745 140.000107
31 140.000107 0.000030 0.000000 -0.616520 -11.833713 5.815899 140.000107
[Rope2_Seg04]
30 139.999802 0.000000 -0.000060 -1.653090 -19.789587 8.949272 139.999802
31 139.999802 0.000000 -0.000060 -1.561771 -19.585197 9.562054 139.999802
[Rope2_Seg05]
30 139.999985 -0.000060 0.000119 -2.746033 -19.496269 7.233766 139.999985
31 139.999985 -0.000060 0.000119 -2.401209 -19.706022 7.970523 139.999985
[Rope2_Seg06]
30 139.999893 -0.000030 -0.000119 -1.091124 -6.481431 2.149129 139.999893
31 139.999893 -0.000030 -0.000119 -0.840324 -6.657497 2.463403 139.999893
[Rope2_Seg07]
30 139.999893 0.000060 -0.000060 -0.685609 -3.370516 1.075758 139.999893
31 139.999893 0.000060 -0.000060 -0.490853 -3.421099 1.248380 139.999893
[Rope2_Seg09]
30 121.338966 0.000089 -0.000060 33.793236 -1.359788 -0.847141 121.338966
31 121.338966 0.000089 -0.000060 33.793236 -1.359788 -0.847141 121.338966
[R_mid_hand01]
30 104.680779 11.144459 -10.335981 -16.212055 45.237240 70.462852 105.778534
31 104.680779 11.144459 -10.335981 -16.212065 45.237255 70.462868 105.778534
[R_mid_hand02]
30 104.070427 2.443552 8.231699 49.067368 -67.749771 39.286453 104.424065
31 104.070427 2.443552 8.231699 49.067390 -67.749802 39.286472 104.424065
[R_mid_hand03]
30 106.028137 -11.221827 -5.996406 -177.101105 15.551026 -76.585571 106.788818
31 106.028137 -11.221827 -5.996406 -177.101105 15.551029 -76.585594 106.788818
[spine02]
30 129.756927 0.001550 0.000119 -1.023899 -3.926965 6.770993 129.756927
31 129.756927 0.001550 0.000119 -1.023899 -3.926965 6.770993 129.756927
[spine03]
30 78.613846 0.087372 -4.898873 1.040681 4.146420 4.212376 78.766380
31 78.613846 0.087372 -4.898873 1.040681 4.146420 4.212377 78.766380
[pelvis]
30 169.435242 0.051022 0.000000 0.019518 -0.190233 -10.721436 169.435257
31 169.435242 0.051022 0.000000 0.019518 -0.190233 -10.721437 169.435257
[null_rope03_connect]
30 -1.257226 -2.466202 137.391083 -148.996323 -87.995132 -107.160522 137.418976
31 -1.257226 -2.466202 137.391083 -148.996719 -87.995819 -107.161079 137.418976
[null_rope04_connect]
30 -1.259640 -2.480268 -137.844437 -148.996323 -87.995132 -107.160522 137.872513
31 -1.259640 -2.480268 -137.844437 -148.996719 -87.995819 -107.161079 137.872513
[Rope3_Seg01]
30 0.000000 0.000000 0.000000 -139.324692 -40.094944 -69.510071 0.000000
31 0.000000 0.000000 0.000000 -140.172501 -39.619083 -67.882271 0.000000
[Rope3_Seg02]
30 139.999924 -0.000119 0.000060 -16.437027 4.512514 -35.322399 139.999924
31 139.999924 -0.000119 0.000060 -16.809895 5.103884 -34.318813 139.999924
[Rope3_Seg03]
30 139.999924 -0.000119 0.000119 -61.693363 17.974863 -47.898762 139.999924
31 139.999924 -0.000119 0.000119 -61.987286 19.961298 -48.345909 139.999924
[Rope3_Seg04]
30 139.999924 0.000119 0.000000 -24.252382 28.602060 -8.327353 139.999924
31 139.999924 0.000119 0.000000 -23.517462 29.067707 -8.797597 139.999924
[Rope3_Seg05]
30 139.999924 -0.000238 0.000060 -7.696925 28.841198 3.307830 139.999924
31 139.999924 -0.000238 0.000060 -7.814209 28.405161 1.764359 139.999924
[Rope3_Seg06]
30 139.999893 -0.000119 -0.000060 -0.302182 10.561644 2.839862 139.999893
31 139.999893 -0.000119 -0.000060 -0.364739 10.316827 2.268073 139.999893
[Rope3_Seg07]
30 139.999771 0.000060 -0.000119 0.477643 5.260091 1.469318 139.999771
31 139.999771 0.000060 -0.000119 0.442541 5.177211 1.209876 139.999771
[Rope3_Seg08]
30 139.999985 -0.000060 0.000000 0.609918 2.871370 0.778835 139.999985
31 139.999985 -0.000060 0.000000 0.591544 2.842477 0.644646 139.999985
[Rope3_Seg09]
30 90.185997 -0.000179 -0.000060 89.793228 -1.359877 -0.847183 90.185997
31 90.185997 -0.000179 -0.000060 89.793228 -1.359877 -0.847183 90.185997
[R_rear_hand01]
30 103.366196 -6.073594 -10.757982 -177.714203 24.565960 -73.910950 104.101845
31 103.366196 -6.073594 -10.757982 -177.714203 24.565968 -73.910957 104.101845
[R_rear_hand02]
30 100.509819 12.039542 -7.992327 -12.874829 36.868488 72.167213 101.543350
31 100.509819 12.039542 -7.992327 -12.874833 36.868492 72.167229 101.543350
[R_rear_hand03]
30 101.539970 5.215704 5.435467 71.484581 -71.816628 21.513813 101.819031
31 101.539970 5.215704 5.435467 71.484634 -71.816643 21.513817 101.819031
[Rope4_Seg01]
30 -0.000010 -0.000003 -0.000153 54.528397 -29.307007 -110.154068 0.000153
31 -0.000010 0.000000 -0.000153 54.389492 -28.484852 -110.313568 0.000153
[Rope4_Seg02]
30 139.999985 0.000060 0.000119 11.276530 -35.750664 7.195048 139.999985
31 139.999985 0.000060 0.000119 11.216084 -35.638760 7.663240 139.999985
[Rope4_Seg03]
30 139.999924 0.000000 -0.000238 51.577488 -45.389587 26.707319 139.999924
31 139.999924 0.000000 -0.000238 50.495010 -45.724434 28.703775 139.999924
[Rope4_Seg04]
30 139.999985 0.000000 0.000119 22.919863 -1.771707 25.597887 139.999985
31 139.999985 0.000000 0.000119 21.999254 -1.701823 25.609806 139.999985
[Rope4_Seg05]
30 139.999802 -0.000060 -0.000119 14.556910 10.335684 32.952011 139.999802
31 139.999802 -0.000060 -0.000119 14.062275 9.413364 32.648449 139.999802
[Rope4_Seg06]
30 139.999924 0.000000 0.000060 2.165259 8.201663 14.416873 139.999924
31 139.999924 0.000000 0.000060 2.133524 7.705519 14.440900 139.999924
[Rope4_Seg07]
30 139.999802 0.000000 0.000000 0.083248 3.494083 5.756178 139.999802
31 139.999802 0.000000 0.000000 0.091456 3.330222 5.810547 139.999802
[Rope4_Seg08]
30 139.999924 0.000000 0.000119 -1.674520 1.829646 3.022535 139.999924
31 139.999924 0.000000 0.000119 -1.668765 1.748307 3.053466 139.999924
[Rope4_Seg09]
30 90.185791 0.000060 0.000060 -135.617828 2.228885 0.850567 90.185791
31 90.185791 0.000060 0.000060 -135.617828 2.228885 0.850567 90.185791
[L_rear_hand01]
30 101.696655 -8.392275 -7.654577 -12.874829 -36.868488 107.832764 102.329041
31 101.696655 -8.392275 -7.654577 -12.874833 -36.868492 107.832779 102.329041
[L_rear_hand02]
30 102.726799 -1.568258 5.773216 71.484581 71.816628 158.486160 102.900848
31 102.726799 -1.568258 5.773216 71.484634 71.816643 158.486176 102.900848
[L_rear_hand03]
30 104.552910 9.721220 -10.420293 -177.714203 -24.565960 -106.089035 105.519653
31 104.552910 9.721220 -10.420293 -177.714203 -24.565968 -106.089043 105.519653
